<?xml version="1.0" standalone="no"?>
<!DOCTYPE svg PUBLIC "-//W3C//DTD SVG 20010904//EN"
 "http://www.w3.org/TR/2001/REC-SVG-20010904/DTD/svg10.dtd">
<svg version="1.0" xmlns="http://www.w3.org/2000/svg"
 width="500.000000pt" height="500.000000pt" viewBox="0 0 500.000000 500.000000"
 preserveAspectRatio="xMidYMid meet">
<metadata>
Created by potrace 1.11, written by Peter Selinger 2001-2013
</metadata>
<g transform="translate(0.000000,500.000000) scale(0.100000,-0.100000)"
fill="#000000" stroke="none">
<path d="M355 4325 c-5 -2 -34 -11 -64 -20 -167 -51 -289 -218 -289 -395 0
-114 36 -212 108 -293 l43 -49 2 -511 c2 -573 0 -555 75 -651 21 -28 62 -65
90 -81 41 -25 56 -41 80 -91 47 -97 108 -158 206 -205 46 -22 84 -45 84 -52
-2 -149 8 -669 13 -686 50 -189 114 -273 258 -341 66 -30 198 -64 299 -75 30
-3 71 -8 90 -10 74 -10 173 -21 260 -31 33 -3 415 -49 490 -59 19 -2 58 -7 85
-10 48 -5 98 -11 175 -20 19 -3 58 -7 85 -10 28 -3 66 -8 85 -10 19 -3 74 -9
122 -15 102 -12 151 -19 198 -26 92 -14 308 -13 385 2 74 14 297 73 355 93 14
5 81 26 150 46 69 20 132 39 140 42 8 3 20 7 26 8 7 2 56 17 110 35 227 73
331 165 378 330 23 82 28 131 31 286 1 78 5 146 9 152 4 6 23 19 43 28 52 25
116 95 154 168 23 44 43 69 67 82 59 32 120 109 142 181 19 61 20 93 20 514
l0 448 29 30 c112 115 141 298 71 451 -116 250 -438 314 -645 127 l-49 -45
-31 23 c-83 61 -189 97 -360 120 -42 6 -133 22 -175 30 -14 3 -79 14 -145 24
-66 11 -212 36 -325 55 -113 19 -221 37 -240 40 -19 3 -46 8 -60 11 -14 2
-160 27 -325 55 -165 27 -309 52 -320 54 -21 4 -76 13 -135 21 -19 3 -60 10
-90 15 -30 5 -102 7 -160 6 -146 -4 -210 -30 -469 -191 -9 -6 -63 -42 -120
-80 -57 -39 -111 -74 -120 -80 -9 -5 -57 -37 -106 -71 -50 -33 -96 -63 -103
-65 -8 -3 -46 -31 -87 -64 -75 -62 -142 -144 -160 -195 -5 -16 -13 -32 -17
-36 -5 -4 -8 -22 -8 -41 0 -18 -4 -33 -9 -33 -4 0 -8 70 -7 156 1 146 2 156
22 172 74 59 136 198 137 306 0 133 -39 226 -134 318 -57 55 -106 82 -186 103
-51 13 -151 19 -178 10z m342 -1097 c-3 -8 -6 -5 -6 6 -1 11 2 17 5 13 3 -3 4
-12 1 -19z"/>
</g>
</svg>
